<?xml version="1.0" encoding="UTF-8" standalone="no"?>
<!DOCTYPE svg PUBLIC "-//W3C//DTD SVG 1.1//EN"
 "http://www.w3.org/Graphics/SVG/1.1/DTD/svg11.dtd">
<!-- Generated by graphviz version 2.40.1 (20161225.0304)
 -->
<!-- Title: %3 Pages: 1 -->
<svg width="300pt" height="332pt"
 viewBox="0.00 0.00 300.14 332.00" xmlns="http://www.w3.org/2000/svg" xmlns:xlink="http://www.w3.org/1999/xlink">
<g id="graph0" class="graph" transform="scale(1 1) rotate(0) translate(4 328)">
<title>%3</title>
<polygon fill="#ffffff" stroke="transparent" points="-4,4 -4,-328 296.1378,-328 296.1378,4 -4,4"/>
<!-- aws_alb -->
<g id="node1" class="node">
<title>aws_alb</title>
<ellipse fill="none" stroke="#000000" cx="123.895" cy="-234" rx="39.7935" ry="18"/>
<text text-anchor="middle" x="123.895" y="-230.3" font-family="Times,serif" font-size="14.00" fill="#000000">aws_alb</text>
</g>
<!-- aws_vpc -->
<g id="node2" class="node">
<title>aws_vpc</title>
<ellipse fill="none" stroke="#000000" cx="129.895" cy="-162" rx="41.6928" ry="18"/>
<text text-anchor="middle" x="129.895" y="-158.3" font-family="Times,serif" font-size="14.00" fill="#000000">aws_vpc</text>
</g>
<!-- aws_alb&#45;&gt;aws_vpc -->
<g id="edge1" class="edge">
<title>aws_alb&#45;&gt;aws_vpc</title>
<path fill="none" stroke="#000000" d="M125.4091,-215.8314C126.0508,-208.131 126.8138,-198.9743 127.527,-190.4166"/>
<polygon fill="#000000" stroke="#000000" points="131.018,-190.6694 128.3606,-180.4133 124.0421,-190.088 131.018,-190.6694"/>
</g>
<!-- aws_ecr -->
<g id="node4" class="node">
<title>aws_ecr</title>
<ellipse fill="none" stroke="#000000" cx="135.895" cy="-18" rx="39.7935" ry="18"/>
<text text-anchor="middle" x="135.895" y="-14.3" font-family="Times,serif" font-size="14.00" fill="#000000">aws_ecr</text>
</g>
<!-- aws_vpc&#45;&gt;aws_ecr -->
<g id="edge6" class="edge">
<title>aws_vpc&#45;&gt;aws_ecr</title>
<path fill="none" stroke="#000000" d="M102.1452,-148.3408C86.9433,-139.2144 69.4899,-125.6405 60.895,-108 53.887,-93.6164 53.6006,-86.2405 60.895,-72 68.8911,-56.3899 83.7333,-44.265 98.117,-35.4952"/>
<polygon fill="#000000" stroke="#000000" points="99.9899,-38.4564 106.9484,-30.4671 96.5265,-32.3733 99.9899,-38.4564"/>
</g>
<!-- local_build_init -->
<g id="node6" class="node">
<title>local_build_init</title>
<ellipse fill="none" stroke="#000000" cx="135.895" cy="-90" rx="66.0889" ry="18"/>
<text text-anchor="middle" x="135.895" y="-86.3" font-family="Times,serif" font-size="14.00" fill="#000000">local_build_init</text>
</g>
<!-- aws_vpc&#45;&gt;local_build_init -->
<g id="edge7" class="edge">
<title>aws_vpc&#45;&gt;local_build_init</title>
<path fill="none" stroke="#000000" d="M131.4091,-143.8314C132.0508,-136.131 132.8138,-126.9743 133.527,-118.4166"/>
<polygon fill="#000000" stroke="#000000" points="137.018,-118.6694 134.3606,-108.4133 130.0421,-118.088 137.018,-118.6694"/>
</g>
<!-- aws_cluster_fargate -->
<g id="node3" class="node">
<title>aws_cluster_fargate</title>
<ellipse fill="none" stroke="#000000" cx="210.895" cy="-306" rx="81.4863" ry="18"/>
<text text-anchor="middle" x="210.895" y="-302.3" font-family="Times,serif" font-size="14.00" fill="#000000">aws_cluster_fargate</text>
</g>
<!-- aws_cluster_fargate&#45;&gt;aws_alb -->
<g id="edge3" class="edge">
<title>aws_cluster_fargate&#45;&gt;aws_alb</title>
<path fill="none" stroke="#000000" d="M189.8348,-288.5708C178.119,-278.875 163.4128,-266.7044 150.8632,-256.3185"/>
<polygon fill="#000000" stroke="#000000" points="152.9163,-253.4745 142.9808,-249.7951 148.4533,-258.8672 152.9163,-253.4745"/>
</g>
<!-- aws_cluster_fargate&#45;&gt;aws_vpc -->
<g id="edge2" class="edge">
<title>aws_cluster_fargate&#45;&gt;aws_vpc</title>
<path fill="none" stroke="#000000" d="M204.8412,-287.7159C198.2751,-269.0215 186.8405,-239.4772 172.895,-216 166.8971,-205.9025 159.1899,-195.6225 151.9611,-186.7794"/>
<polygon fill="#000000" stroke="#000000" points="154.6307,-184.5158 145.5195,-179.1086 149.2701,-189.0174 154.6307,-184.5158"/>
</g>
<!-- aws_cluster_fargate&#45;&gt;aws_ecr -->
<g id="edge4" class="edge">
<title>aws_cluster_fargate&#45;&gt;aws_ecr</title>
<path fill="none" stroke="#000000" d="M216.1311,-287.9962C226.9964,-246.9709 248.0298,-144.4957 210.895,-72 202.899,-56.3899 188.0568,-44.265 173.673,-35.4952"/>
<polygon fill="#000000" stroke="#000000" points="175.2636,-32.3733 164.8416,-30.4671 171.8002,-38.4564 175.2636,-32.3733"/>
</g>
<!-- aws_route53 -->
<g id="node5" class="node">
<title>aws_route53</title>
<ellipse fill="none" stroke="#000000" cx="55.895" cy="-306" rx="55.7903" ry="18"/>
<text text-anchor="middle" x="55.895" y="-302.3" font-family="Times,serif" font-size="14.00" fill="#000000">aws_route53</text>
</g>
<!-- aws_route53&#45;&gt;aws_alb -->
<g id="edge5" class="edge">
<title>aws_route53&#45;&gt;aws_alb</title>
<path fill="none" stroke="#000000" d="M72.3559,-288.5708C81.0009,-279.4174 91.729,-268.0582 101.1554,-258.0773"/>
<polygon fill="#000000" stroke="#000000" points="103.7322,-260.4463 108.054,-250.7729 98.6431,-255.6399 103.7322,-260.4463"/>
</g>
<!-- local_build_init&#45;&gt;aws_ecr -->
<g id="edge8" class="edge">
<title>local_build_init&#45;&gt;aws_ecr</title>
<path fill="none" stroke="#000000" d="M135.895,-71.8314C135.895,-64.131 135.895,-54.9743 135.895,-46.4166"/>
<polygon fill="#000000" stroke="#000000" points="139.3951,-46.4132 135.895,-36.4133 132.3951,-46.4133 139.3951,-46.4132"/>
</g>
</g>
</svg>
